<svg width="353" height="469" fill="none" xmlns="http://www.w3.org/2000/svg"><g filter="url(#filter0_d)"><path d="M284.066 386.735c-3.006-.609-4.889-3.827-4.208-7.186l3.269-16.119c.681-3.359 3.669-5.589 6.674-4.98 3.006.61 4.889 3.827 4.208 7.187l-3.269 16.119c-.681 3.36-3.67 5.589-6.674 4.979z" fill="url(#paint0_linear)"/><path d="M275.266 430.132c-3.006-.61-4.889-3.827-4.208-7.187l3.269-16.119c.681-3.359 3.669-5.589 6.674-4.979 3.006.609 4.889 3.826 4.208 7.186l-3.269 16.119c-.681 3.359-3.669 5.589-6.674 4.98z" fill="url(#paint1_linear)"/><path d="M307.917 405.771l-14.418-2.924c-3.006-.609-4.889-3.827-4.208-7.186s3.669-5.589 6.675-4.98l14.418 2.924c3.005.609 4.889 3.827 4.207 7.186-.682 3.36-3.669 5.589-6.674 4.98z" fill="url(#paint2_linear)"/><path d="M269.099 397.899l-14.418-2.923c-3.005-.61-4.888-3.827-4.207-7.186.681-3.36 3.669-5.59 6.674-4.98l14.418 2.924c3.005.609 4.889 3.826 4.207 7.186-.681 3.359-3.669 5.589-6.674 4.979z" fill="url(#paint3_linear)"/><path d="M398.143 247.664c-10.15 50.056-53.747 82.547-104.527 72.25-26.268-5.327-50.592-10.259-67.347-5.441-8.186 2.342-14.572 7.016-18.48 15.115-3.563 7.366-5.085 17.553-4.07 31.395 4.409 60.195-65.832 63.928-65.832 63.928 3.292-5.842 5.845-11.615 7.677-17.264.266-.79.508-1.569.734-2.35a.126.126 0 01.017-.048c9.875-33.874-6.249-62.559-44.559-70.328-58.55-11.873-54.59-88.346 2.54-101.915 33.844-8.048 71.745 7.439 101.459 10.332 3.184.317 6.27.478 9.25.458.067.005.134.01.196.005a64 64 0 004.16-.178c14.125-1.087 25.426-7.282 32.105-23.904 18.365-45.722-46.417-48.506-64.929-48.393a.976.976 0 00-.182.005c-1.754.008-3.077.052-3.846.082-.047.007-.099.005-.144.004a3.757 3.757 0 00-.35.014 9.485 9.485 0 00-.282.011c-.446.002-.883-.002-1.335-.01C19.611 170.196 46.143 47.698 120.206 24.187c8.097-2.57 16.28-4.154 24.422-4.934 66.526-6.42 130.72 40.641 130.72 40.641s-90.346-20.296-111.399 25.278c-.326.71-.625 1.401-.89 2.074-4.08 10.513-.428 17.197 8.257 21.779 18.974 10.011 61.993 9.979 101.015 17.892 108.815 22.065 135.963 70.692 125.812 120.747z" fill="#B68AFD"/><path d="M296.254 211.159c-12.675 24.289-39.714 30.737-76.89 32.461 14.125-1.088 25.426-7.282 32.105-23.904 18.365-45.722-46.417-48.506-64.929-48.393 23.857-.398 127.817.098 109.714 39.836zM146.317 405.246c9.875-33.875-6.248-62.56-44.558-70.328-58.55-11.873-54.59-88.347 2.54-101.915 33.844-8.049 71.745 7.439 101.459 10.332l-.011.724c-126.402-9.834-82.54 75.552-68.041 91.579 14.191 15.687 19.678 33.247 8.611 69.608zm34.085-233.817C19.615 170.193 46.147 47.694 120.21 24.184c8.096-2.572 16.28-4.155 24.422-4.936-89.22 43.987-18.318 150.856 35.77 152.181z" fill="#96C"/><path d="M389.431 135.41l13.547-.31c6.396-.146 8.377-9.915 2.543-12.541l-12.357-5.562c-12.177-5.481-19.89-18.656-19.585-33.45l.31-15.013c.147-7.088-8.592-8.86-11.217-2.275l-5.563 13.948c-5.481 13.744-17.718 22.873-31.068 23.178l-13.548.31c-6.395.146-8.377 9.916-2.543 12.541l12.357 5.562c12.177 5.481 19.89 18.657 19.585 33.451l-.31 15.012c-.146 7.088 8.592 8.86 11.218 2.275l5.562-13.947c5.482-13.745 17.718-22.874 31.069-23.179z" fill="url(#paint4_linear)"/><path d="M190.222 283.383l13.547-.31c6.396-.146 8.377-9.916 2.543-12.541l-12.356-5.563c-12.177-5.48-19.891-18.656-19.586-33.45l.311-15.013c.146-7.087-8.593-8.859-11.218-2.274l-5.563 13.947c-5.481 13.745-17.718 22.874-31.068 23.179l-13.548.309c-6.395.147-8.376 9.916-2.543 12.542l12.357 5.562c12.177 5.481 19.89 18.656 19.585 33.45l-.31 15.013c-.146 7.087 8.592 8.859 11.218 2.275l5.562-13.948c5.482-13.744 17.718-22.873 31.069-23.178z" fill="url(#paint5_linear)"/><path d="M171.317 109.025c-31.934-10.757-35.963-31.821-32.018-51.278 0 0 3.424 22.301 23.761 29.499-4.08 10.513-.429 17.197 8.257 21.779zm54.955 205.44l-.002.008c-8.186 2.342-14.572 7.017-18.479 15.115-14.377 2.404-29.906 14.623-29.906 14.623 9.915-19.098 33.163-27.446 48.387-29.746zm70.281-34.008c32.015 2.271 60.125-28.337 65.223-53.479 0 0 5.406 31.072-19.956 49.993-25.362 18.921-45.267 3.486-45.267 3.486z" fill="#96C"/></g><defs><linearGradient id="paint0_linear" x1="281.45" y1="371.481" x2="294.307" y2="374.088" gradientUnits="userSpaceOnUse"><stop stop-color="#FEE903"/><stop offset=".163" stop-color="#FEE306"/><stop offset=".374" stop-color="#FED310"/><stop offset=".612" stop-color="#FEB820"/><stop offset=".867" stop-color="#FE9336"/><stop offset="1" stop-color="#FE7D43"/></linearGradient><linearGradient id="paint1_linear" x1="272.65" y1="414.877" x2="285.507" y2="417.484" gradientUnits="userSpaceOnUse"><stop stop-color="#FEE903"/><stop offset=".163" stop-color="#FEE306"/><stop offset=".374" stop-color="#FED310"/><stop offset=".612" stop-color="#FEB820"/><stop offset=".867" stop-color="#FE9336"/><stop offset="1" stop-color="#FE7D43"/></linearGradient><linearGradient id="paint2_linear" x1="289.192" y1="395.641" x2="319.084" y2="401.702" gradientUnits="userSpaceOnUse"><stop stop-color="#FEE903"/><stop offset=".163" stop-color="#FEE306"/><stop offset=".374" stop-color="#FED310"/><stop offset=".612" stop-color="#FEB820"/><stop offset=".867" stop-color="#FE9336"/><stop offset="1" stop-color="#FE7D43"/></linearGradient><linearGradient id="paint3_linear" x1="250.375" y1="387.769" x2="280.266" y2="393.831" gradientUnits="userSpaceOnUse"><stop stop-color="#FEE903"/><stop offset=".163" stop-color="#FEE306"/><stop offset=".374" stop-color="#FED310"/><stop offset=".612" stop-color="#FEB820"/><stop offset=".867" stop-color="#FE9336"/><stop offset="1" stop-color="#FE7D43"/></linearGradient><linearGradient id="paint4_linear" x1="359.538" y1="84.384" x2="391.527" y2="104.551" gradientUnits="userSpaceOnUse"><stop stop-color="#FEFA6E"/><stop offset="1" stop-color="#98F852"/></linearGradient><linearGradient id="paint5_linear" x1="160.329" y1="232.357" x2="192.318" y2="252.524" gradientUnits="userSpaceOnUse"><stop stop-color="#FEFA6E"/><stop offset="1" stop-color="#98F852"/></linearGradient><filter id="filter0_d" x="59.612" y="18.651" width="369.378" height="431.581" filterUnits="userSpaceOnUse" color-interpolation-filters="sRGB"><feFlood flood-opacity="0" result="BackgroundImageFix"/><feColorMatrix in="SourceAlpha" values="0 0 0 0 0 0 0 0 0 0 0 0 0 0 0 0 0 0 127 0" result="hardAlpha"/><feOffset dx="10" dy="10"/><feGaussianBlur stdDeviation="5"/><feComposite in2="hardAlpha" operator="out"/><feColorMatrix values="0 0 0 0 0 0 0 0 0 0 0 0 0 0 0 0 0 0 0.4 0"/><feBlend in2="BackgroundImageFix" result="effect1_dropShadow"/><feBlend in="SourceGraphic" in2="effect1_dropShadow" result="shape"/></filter></defs></svg>